<?xml version="1.0" encoding="utf-8"?>
<!-- Generator: Adobe Illustrator 16.1.0, SVG Export Plug-In . SVG Version: 6.00 Build 0)  -->
<!DOCTYPE svg PUBLIC "-//W3C//DTD SVG 1.1//EN" "http://www.w3.org/Graphics/SVG/1.1/DTD/svg11.dtd">
<svg version="1.1" id="Layer_1" xmlns="http://www.w3.org/2000/svg" xmlns:xlink="http://www.w3.org/1999/xlink" x="0px" y="0px"
	 width="18px" height="36px" viewBox="0 0 18 36" enable-background="new 0 0 18 36" xml:space="preserve">
<circle fill="#D3D3D3" cx="9" cy="9" r="9"/>
<path id="Flickr" fill="#FFFFFF" d="M14.561,8.996c0,1.332-1.087,2.416-2.43,2.416c-1.335,0-2.423-1.084-2.423-2.416
	c0-1.33,1.088-2.408,2.423-2.408C13.474,6.587,14.561,7.667,14.561,8.996z M5.864,6.587c-1.34,0-2.425,1.08-2.425,2.408
	c0,1.332,1.085,2.416,2.425,2.416c1.342,0,2.429-1.084,2.429-2.416C8.294,7.667,7.208,6.587,5.864,6.587z"/>
<g id="colors">
	<circle fill="#FF6C01" cx="9" cy="27" r="9"/>
	<circle display="none" fill="#8DC63E" cx="9" cy="27" r="9"/>
	<circle display="none" fill="#318DBD" cx="9" cy="27" r="9"/>
</g>
<path id="Flickr_1_" fill="#FFFFFF" d="M14.561,26.996c0,1.332-1.087,2.416-2.43,2.416c-1.335,0-2.423-1.084-2.423-2.416
	c0-1.33,1.088-2.408,2.423-2.408C13.474,24.587,14.561,25.667,14.561,26.996z M5.864,24.587c-1.34,0-2.425,1.08-2.425,2.408
	c0,1.332,1.085,2.416,2.425,2.416c1.342,0,2.429-1.084,2.429-2.416C8.294,25.667,7.208,24.587,5.864,24.587z"/>
</svg>
