<?xml version="1.0" encoding="UTF-8" standalone="no"?>
<svg width="18px" height="36px" viewBox="0 0 18 36" version="1.1" xmlns="http://www.w3.org/2000/svg" xmlns:xlink="http://www.w3.org/1999/xlink" xmlns:sketch="http://www.bohemiancoding.com/sketch/ns">
    <!-- Generator: Sketch 3.0.1 (7597) - http://www.bohemiancoding.com/sketch -->
    <title>Slice 1</title>
    <description>Created with Sketch.</description>
    <defs></defs>
    <g id="Page-1" stroke="none" stroke-width="1" fill="none" fill-rule="evenodd" sketch:type="MSPage">
        <g id="rss" sketch:type="MSLayerGroup">
            <circle id="Oval" fill="#D3D3D3" sketch:type="MSShapeGroup" cx="9" cy="9" r="9"></circle>
            <g transform="translate(4.000000, 4.000000)" fill="#FFFFFF" sketch:type="MSShapeGroup">
                <path d="M9.676,9.404 L9.676,9.678 L8.173,9.678 L8.173,9.404 C8.173,5.222 4.775,1.824 0.597,1.824 L0.325,1.824 L0.325,0.321 L0.597,0.321 C5.603,0.321 9.676,4.394 9.676,9.404 L9.676,9.404 Z" id="Shape"></path>
                <path d="M6.602,9.391 L6.602,9.662 L4.93,9.662 L4.93,9.391 C4.93,6.999 2.987,5.055 0.598,5.055 L0.326,5.055 L0.326,3.384 L0.598,3.384 C3.909,3.384 6.602,6.08 6.602,9.391 L6.602,9.391 Z" id="Shape"></path>
                <circle id="Oval" cx="1.124" cy="8.124" r="1.124"></circle>
            </g>
            <g id="colors" transform="translate(0.000000, 18.000000)" fill="#B10000" sketch:type="MSShapeGroup">
                <circle id="Oval" cx="9" cy="9" r="9"></circle>
            </g>
            <g id="rss_1_" transform="translate(4.000000, 22.000000)" fill="#FFFFFF" sketch:type="MSShapeGroup">
                <path d="M9.676,9.404 L9.676,9.678 L8.173,9.678 L8.173,9.404 C8.173,5.222 4.775,1.824 0.597,1.824 L0.325,1.824 L0.325,0.322 L0.597,0.322 C5.603,0.322 9.676,4.394 9.676,9.404 L9.676,9.404 Z" id="Shape"></path>
                <path d="M6.602,9.391 L6.602,9.662 L4.93,9.662 L4.93,9.391 C4.93,6.999 2.987,5.055 0.598,5.055 L0.326,5.055 L0.326,3.384 L0.598,3.384 C3.909,3.384 6.602,6.08 6.602,9.391 L6.602,9.391 Z" id="Shape"></path>
                <circle id="Oval" cx="1.124" cy="8.124" r="1.124"></circle>
            </g>
        </g>
    </g>
</svg>