<?xml version="1.0" encoding="UTF-8" standalone="no"?>
<svg width="18px" height="36px" viewBox="0 0 18 36" version="1.1" xmlns="http://www.w3.org/2000/svg" xmlns:xlink="http://www.w3.org/1999/xlink" xmlns:sketch="http://www.bohemiancoding.com/sketch/ns">
    <!-- Generator: Sketch 3.0.1 (7597) - http://www.bohemiancoding.com/sketch -->
    <title>Slice 1</title>
    <description>Created with Sketch.</description>
    <defs></defs>
    <g id="Page-1" stroke="none" stroke-width="1" fill="none" fill-rule="evenodd" sketch:type="MSPage">
        <g id="twitter" sketch:type="MSLayerGroup">
            <circle id="Oval" fill="#D3D3D3" sketch:type="MSShapeGroup" cx="9" cy="9" r="9"></circle>
            <path d="M13.882,5.967 C13.523,6.127 13.138,6.235 12.732,6.283 C13.146,6.035 13.464,5.643 13.612,5.175 C13.225,5.405 12.797,5.572 12.34,5.66 C11.977,5.271 11.453,5.027 10.879,5.027 C9.772,5.027 8.875,5.923 8.875,7.031 C8.875,7.188 8.895,7.34 8.926,7.487 C7.263,7.404 5.786,6.607 4.8,5.395 C4.625,5.691 4.527,6.034 4.527,6.402 C4.527,7.096 4.88,7.709 5.418,8.071 C5.089,8.059 4.78,7.97 4.51,7.818 L4.51,7.842 C4.51,8.815 5.201,9.623 6.116,9.807 C5.948,9.854 5.771,9.88 5.589,9.88 C5.46,9.88 5.336,9.865 5.213,9.842 C5.468,10.643 6.208,11.222 7.084,11.24 C6.398,11.776 5.536,12.099 4.596,12.099 C4.434,12.099 4.274,12.085 4.118,12.068 C5.005,12.637 6.058,12.971 7.188,12.971 C10.872,12.971 12.889,9.913 12.889,7.263 C12.889,7.176 12.887,7.091 12.882,7.003 C13.274,6.722 13.612,6.369 13.882,5.967 L13.882,5.967 Z" id="twitter_bird" fill="#FFFFFF" sketch:type="MSShapeGroup"></path>
            <g id="colors" transform="translate(0.000000, 18.000000)" fill="#B10000" sketch:type="MSShapeGroup">
                <circle id="Oval" cx="9" cy="9" r="9"></circle>
            </g>
            <path d="M13.882,23.967 C13.523,24.126 13.138,24.235 12.732,24.283 C13.146,24.035 13.464,23.643 13.612,23.175 C13.225,23.405 12.797,23.571 12.34,23.66 C11.977,23.271 11.453,23.027 10.879,23.027 C9.772,23.027 8.875,23.923 8.875,25.031 C8.875,25.188 8.895,25.341 8.926,25.487 C7.263,25.403 5.786,24.606 4.8,23.394 C4.627,23.69 4.529,24.033 4.529,24.401 C4.529,25.095 4.882,25.708 5.42,26.07 C5.089,26.058 4.78,25.97 4.51,25.818 L4.51,25.842 C4.51,26.815 5.201,27.623 6.116,27.808 C5.948,27.854 5.771,27.88 5.589,27.88 C5.46,27.88 5.336,27.864 5.213,27.841 C5.468,28.643 6.208,29.222 7.084,29.239 C6.398,29.775 5.536,30.098 4.596,30.098 C4.434,30.098 4.274,30.084 4.118,30.067 C5.005,30.636 6.058,30.97 7.188,30.97 C10.872,30.97 12.889,27.912 12.889,25.262 C12.889,25.175 12.887,25.09 12.882,25.002 C13.274,24.722 13.612,24.369 13.882,23.967 L13.882,23.967 Z" id="twitter_bird_1_" fill="#FFFFFF" sketch:type="MSShapeGroup"></path>
        </g>
    </g>
</svg>