<?xml version="1.0" encoding="utf-8"?>
<!-- Generator: Adobe Illustrator 16.0.0, SVG Export Plug-In . SVG Version: 6.00 Build 0)  -->
<!DOCTYPE svg PUBLIC "-//W3C//DTD SVG 1.1//EN" "http://www.w3.org/Graphics/SVG/1.1/DTD/svg11.dtd">
<svg version="1.1" id="Layer_1" xmlns="http://www.w3.org/2000/svg" xmlns:xlink="http://www.w3.org/1999/xlink" x="0px" y="0px"
	 width="270.542px" height="72.093px" viewBox="0 0 270.542 72.093" enable-background="new 0 0 270.542 72.093"
	 xml:space="preserve">
<g>
	<path fill="#B10000" d="M24.92,35.035l-25.9-3.08l25.9-2.17V35.035z M40.67,33.005h-9.59c0,1.447-0.724,2.17-2.17,2.17
		c-0.7,0-1.237-0.245-1.61-0.735c-0.374-0.49-0.56-1.131-0.56-1.925c0-1.82,0.723-2.73,2.17-2.73c0.653,0,1.178,0.21,1.575,0.63
		c0.396,0.42,0.595,0.98,0.595,1.68h9.59V33.005z M128.52,32.095c0,4.9-1.937,8.75-5.81,11.55c-3.034,2.194-6.277,3.29-9.73,3.29
		c-3.314,0-6.137-0.84-8.47-2.52c-2.334-1.68-3.897-4.013-4.69-7c0,1.354-0.339,2.392-1.015,3.115
		c-0.677,0.724-1.599,1.085-2.765,1.085c-0.934,0-1.715-0.233-2.345-0.7c-0.63-0.466-1.015-0.98-1.155-1.54
		c-0.14-0.56-0.21-0.956-0.21-1.19c0-0.84,0.396-1.26,1.19-1.26c0.42,0,0.665,0.105,0.735,0.315c0.07,0.21,0.105,0.572,0.105,1.085
		c0,0.467,0.14,0.945,0.42,1.435c0.28,0.49,0.793,0.735,1.54,0.735c1.026,0,1.75-0.35,2.17-1.05c0.233-0.466,0.35-1.073,0.35-1.82
		c0-1.446-0.63-2.45-1.89-3.01c-0.887-0.373-2.334-0.56-4.34-0.56c-1.26,0-4.13,1.354-8.61,4.06c-2.707,1.587-4.9,2.649-6.58,3.185
		c-1.68,0.537-3.454,0.805-5.32,0.805c-2.38,0-4.504-0.373-6.37-1.12c-2.707,1.82-4.48,2.917-5.32,3.29
		c-2.054,0.98-4.387,1.47-7,1.47c-2.614,0-4.994-0.536-7.14-1.61c-1.68-0.84-3.174-1.983-4.48-3.43c-0.654-0.7-1.26-1.4-1.82-2.1
		c-0.84-0.84-1.657-1.26-2.45-1.26c-1.26,0-2.077,0.91-2.45,2.73c-0.28-0.326-0.502-0.77-0.665-1.33
		c-0.164-0.56-0.245-1.003-0.245-1.33c0-0.84,0.221-1.54,0.665-2.1c0.443-0.56,1.225-0.84,2.345-0.84c1.446,0,2.986,0.98,4.62,2.94
		c-0.28-0.84-0.42-1.82-0.42-2.94c0-2.333,0.56-4.363,1.68-6.09c1.306-2.1,3.22-3.15,5.74-3.15c2.426,0,4.27,0.794,5.53,2.38
		c0.98,1.307,1.47,2.87,1.47,4.69c0,1.68-0.444,3.01-1.33,3.99c-0.887,0.98-2.054,1.47-3.5,1.47c-1.074,0-2.007-0.233-2.8-0.7
		c-0.98-0.606-1.47-1.47-1.47-2.59c0-0.466,0.07-0.933,0.21-1.4h-3.78l0.21-0.98h10.43v0.98h-4.97c0,0.934,0.303,1.68,0.91,2.24
		c0.466,0.42,1.026,0.63,1.68,0.63c0.793,0,1.505-0.326,2.135-0.98c0.63-0.653,0.945-1.61,0.945-2.87c0-1.54-0.28-2.776-0.84-3.71
		c-0.934-1.446-2.52-2.17-4.76-2.17c-2.147,0-3.757,0.829-4.83,2.485c-1.074,1.657-1.61,3.769-1.61,6.335
		c0,2.52,0.863,4.69,2.59,6.51c2.053,2.194,4.993,3.29,8.82,3.29c1.96,0,3.896-0.42,5.81-1.26c1.493-0.653,3.126-1.61,4.9-2.87
		c-1.54-0.793-2.8-1.843-3.78-3.15c-1.12-1.54-1.68-3.243-1.68-5.11c0-2.706,0.688-4.76,2.065-6.16c1.376-1.4,3.021-2.1,4.935-2.1
		c1.586,0,2.905,0.502,3.955,1.505c1.05,1.004,1.575,2.229,1.575,3.675c0,0.654-0.094,1.167-0.28,1.54
		c-0.187,0.374-0.63,0.77-1.33,1.19h3.99l-1.12,0.98H61.53v-0.98h7.42c-0.234-0.14-0.397-0.256-0.49-0.35
		c-0.327-0.373-0.49-0.84-0.49-1.4c0-0.233,0.035-0.49,0.105-0.77c0.07-0.28,0.35-0.571,0.84-0.875
		c0.49-0.303,0.758-0.595,0.805-0.875c0.14-0.7-0.14-1.306-0.84-1.82c-0.7-0.513-1.634-0.77-2.8-0.77
		c-1.307,0-2.427,0.537-3.36,1.61c-1.214,1.447-1.82,3.524-1.82,6.23c0,1.68,0.49,3.127,1.47,4.34c0.7,0.934,1.726,1.727,3.08,2.38
		c2.146-1.446,4.97-3.558,8.47-6.335c3.5-2.776,6.206-5.121,8.12-7.035c1.68-1.68,2.59-3.36,2.73-5.04
		c0.046-0.233,0.07-0.583,0.07-1.05c0-1.166-0.234-2.158-0.7-2.975c-0.467-0.816-1.12-1.225-1.96-1.225h-0.7
		c-0.607,0-1.132,0.129-1.575,0.385c-0.444,0.257-0.852,0.595-1.225,1.015c0.326-1.12,0.886-1.983,1.68-2.59
		c0.793-0.606,1.61-0.91,2.45-0.91c1.026,0,1.96,0.269,2.8,0.805c0.84,0.537,1.353,1.365,1.54,2.485
		c0.093,0.467,0.14,0.98,0.14,1.54c0,0.747-0.129,1.529-0.385,2.345c-0.257,0.817-0.782,1.809-1.575,2.975
		c3.966-2.94,8.108-5.32,12.425-7.14c4.316-1.82,8.318-2.73,12.005-2.73c5.133,0,9.38,1.33,12.74,3.99
		C126.513,21.479,128.52,26.075,128.52,32.095z M58.52,33.075h-2.17v-0.98h2.17V33.075z M127.47,31.675
		c0-5.18-1.727-9.24-5.18-12.18c-3.22-2.706-7.35-4.06-12.39-4.06c-4.247,0-8.75,1.097-13.51,3.29
		c-3.594,1.68-7.444,4.084-11.55,7.21c-1.354,1.027-4.084,3.29-8.19,6.79c-0.654,0.607-1.844,1.54-3.57,2.8
		c-4.154,3.034-6.254,4.574-6.3,4.62c0.56,0.28,1.19,0.479,1.89,0.595c0.7,0.117,1.376,0.175,2.03,0.175
		c0.746,0,1.528-0.07,2.345-0.21c0.816-0.14,1.575-0.35,2.275-0.63c2.053-0.746,4.923-2.1,8.61-4.06
		c2.753-1.493,5.226-2.403,7.42-2.73v-0.21h-7.84l1.26-0.98h13.79v0.91h-4.9v0.28c1.586,0,2.893,0.234,3.92,0.7
		c1.026,0.467,1.703,1.307,2.03,2.52l-0.14-3.22c0-2.986,1.12-5.32,3.36-7c1.726-1.306,3.523-1.96,5.39-1.96
		c2.893,0,5.086,0.957,6.58,2.87c1.166,1.494,1.75,3.174,1.75,5.04c0,1.494-0.385,2.742-1.155,3.745
		c-0.77,1.004-1.832,1.505-3.185,1.505c-1.214,0-2.112-0.326-2.695-0.98c-0.584-0.653-0.875-1.423-0.875-2.31
		c0-0.513,0.116-0.91,0.35-1.19l-7.56,0.07v-0.98h8.89c-0.047,0.14-0.07,0.35-0.07,0.63c0,0.514,0.116,0.934,0.35,1.26
		c0.233,0.327,0.63,0.49,1.19,0.49c0.653,0,1.201-0.28,1.645-0.84c0.443-0.56,0.665-1.213,0.665-1.96c0-1.633-0.35-2.963-1.05-3.99
		c-0.98-1.446-2.66-2.17-5.04-2.17c-1.96,0-3.699,0.735-5.215,2.205c-1.517,1.47-2.275,3.349-2.275,5.635
		c0,4.527,1.446,7.91,4.34,10.15c2.1,1.68,4.76,2.52,7.98,2.52c3.733,0,6.953-1.12,9.66-3.36
		C125.813,40.052,127.47,36.389,127.47,31.675z M124.18,31.955c0,2.054-0.677,4.025-2.03,5.915c-1.354,1.89-2.847,3.209-4.48,3.955
		l-0.21-0.49c1.4-0.84,2.52-1.843,3.36-3.01c1.306-1.773,1.96-3.826,1.96-6.16c0-3.266-0.98-5.95-2.94-8.05
		c-2.287-2.426-5.577-3.64-9.87-3.64c-2.94,0-6.184,0.63-9.73,1.89c-3.267,1.12-6.534,2.684-9.8,4.69
		c-1.307,0.84-4.387,3.034-9.24,6.58c-3.64,2.614-6.534,4.41-8.68,5.39l-0.84-0.21c1.306-0.746,3.196-2.053,5.67-3.92
		c7.466-5.786,11.946-9.17,13.44-10.15c2.846-1.96,5.856-3.523,9.03-4.69c3.686-1.353,7.046-2.03,10.08-2.03
		c4.62,0,8.155,1.225,10.605,3.675C122.955,24.15,124.18,27.569,124.18,31.955z M128.87,40.075c0.28,0.7,0.42,1.447,0.42,2.24
		c0,1.214-0.28,2.334-0.84,3.36c-0.7,1.307-1.844,2.404-3.43,3.29c0.933,0.14,1.633,0.56,2.1,1.26c0.466,0.7,0.7,1.54,0.7,2.52
		c0,0.374-0.047,0.84-0.14,1.4c-0.514-0.84-1.249-1.505-2.205-1.995c-0.957-0.49-1.937-0.84-2.94-1.05
		c-1.004-0.21-2.03-0.338-3.08-0.385c-1.05-0.046-2.299-0.07-3.745-0.07h-2.66c-2.894,0-5.414-0.49-7.56-1.47
		c-2.94-1.306-5.25-3.5-6.93-6.58l0.77-0.35c1.586,2.427,3.313,4.177,5.18,5.25c2.193,1.26,5.04,1.89,8.54,1.89
		c3.92,0,7.163-0.77,9.73-2.31C124.18,46.235,126.21,43.902,128.87,40.075z M143.36,16.135c-1.447,0-2.555,0.222-3.325,0.665
		c-0.77,0.444-1.669,1.272-2.695,2.485c-0.794,0.98-1.307,2.264-1.54,3.85c-0.234,1.587-0.35,3.197-0.35,4.83v2.1
		c1.073,0.28,1.61,0.98,1.61,2.1c0,1.074-0.537,1.727-1.61,1.96v1.47c0,2.987,0.63,4.9,1.89,5.74h-5.39
		c1.26-0.84,1.89-2.753,1.89-5.74v-1.47c-1.12-0.233-1.68-0.886-1.68-1.96c0-1.12,0.56-1.82,1.68-2.1v-2.1
		c0-1.866-0.047-3.243-0.14-4.13c-0.327-2.006-0.922-3.558-1.785-4.655c-0.864-1.096-1.692-1.855-2.485-2.275
		c-0.934-0.513-2.1-0.77-3.5-0.77c0.233-0.7,0.443-1.213,0.63-1.54c0.606-0.933,1.423-1.4,2.45-1.4c0.886,0,1.563,0.257,2.03,0.77
		c0.28,0.374,0.583,0.747,0.91,1.12c0-0.606-0.012-1.166-0.035-1.68c-0.024-0.513-0.035-0.956-0.035-1.33
		c0-2.38,0.221-4.666,0.665-6.86c0.443-2.193,1.131-3.803,2.065-4.83c0.98,1.074,1.703,2.707,2.17,4.9
		c0.466,2.194,0.7,4.55,0.7,7.07c0,0.607,0,1.214,0,1.82c-0.094,0.467-0.14,0.77-0.14,0.91c0.42-0.56,0.723-0.91,0.91-1.05
		c0.42-0.56,1.096-0.84,2.03-0.84c0.793,0,1.446,0.28,1.96,0.84C142.753,14.595,143.126,15.295,143.36,16.135z M137.34,42.595
		l-2.73,29.33l-2.66-29.33H137.34z M170.66,42.595c-1.587,2.987-3.874,5.157-6.86,6.51c-2.287,1.027-4.807,1.54-7.56,1.54h-2.66
		c-1.12,0-2.194,0.012-3.22,0.035c-1.027,0.024-2.147,0.152-3.36,0.385c-1.214,0.234-2.275,0.572-3.185,1.015
		c-0.91,0.444-1.645,1.132-2.205,2.065c-0.094-0.56-0.14-1.05-0.14-1.47c0-0.98,0.21-1.796,0.63-2.45
		c0.42-0.653,1.166-1.073,2.24-1.26c-1.54-0.886-2.637-1.948-3.29-3.185c-0.654-1.236-0.98-2.415-0.98-3.535
		c0-0.373,0.035-0.758,0.105-1.155c0.07-0.396,0.151-0.735,0.245-1.015c0.886,1.354,1.773,2.707,2.66,4.06
		c2.846,3.5,7.233,5.25,13.16,5.25c3.453,0,6.275-0.63,8.47-1.89c1.96-1.12,3.71-2.87,5.25-5.25L170.66,42.595z M235.201,37.415
		c0,0.42-0.047,0.852-0.141,1.295c-0.094,0.444-0.375,0.899-0.84,1.365c-0.141-0.886-0.432-1.563-0.875-2.03
		c-0.443-0.466-0.969-0.7-1.576-0.7c-0.793,0-1.586,0.397-2.379,1.19c-0.887,1.027-1.494,1.75-1.82,2.17
		c-1.354,1.494-2.848,2.637-4.48,3.43c-2.1,1.074-4.504,1.61-7.209,1.61c-2.615,0-4.971-0.49-7.07-1.47
		c-0.84-0.42-2.566-1.516-5.18-3.29c-1.914,0.747-4.061,1.12-6.439,1.12c-1.914,0-3.711-0.268-5.391-0.805
		c-1.68-0.536-3.805-1.575-6.371-3.115c-4.574-2.753-7.488-4.13-8.75-4.13c-1.96,0-3.406,0.187-4.34,0.56
		c-1.26,0.56-1.89,1.564-1.89,3.01c0,0.747,0.14,1.354,0.42,1.82c0.42,0.7,1.12,1.05,2.1,1.05c0.606,0,1.085-0.186,1.436-0.56
		c0.35-0.373,0.524-0.91,0.524-1.61c0-0.513,0.035-0.875,0.105-1.085s0.291-0.315,0.665-0.315c0.84,0,1.26,0.444,1.26,1.33
		c0,0.187-0.047,0.444-0.141,0.77c-0.374,1.727-1.564,2.59-3.57,2.59c-1.074,0-1.96-0.361-2.66-1.085
		c-0.7-0.723-1.05-1.761-1.05-3.115c-0.794,2.894-2.38,5.204-4.76,6.93c-2.38,1.727-5.18,2.59-8.4,2.59c-3.5,0-6.767-1.096-9.8-3.29
		c-3.874-2.8-5.81-6.65-5.81-11.55c0-6.02,1.983-10.593,5.95-13.72c3.406-2.706,7.7-4.06,12.88-4.06c3.593,0,7.571,0.91,11.935,2.73
		c4.363,1.82,8.505,4.2,12.425,7.14c-0.701-1.166-1.203-2.17-1.506-3.01S182,19.519,182,18.725c0-0.373,0.07-0.956,0.211-1.75
		c0.139-0.793,0.641-1.481,1.504-2.065c0.863-0.583,1.762-0.875,2.695-0.875s1.773,0.28,2.52,0.84
		c0.746,0.56,1.307,1.447,1.682,2.66c-0.516-0.513-0.992-0.875-1.436-1.085c-0.445-0.21-0.875-0.315-1.295-0.315h-0.77
		c-0.748,0-1.377,0.42-1.891,1.26c-0.514,0.84-0.77,1.844-0.77,3.01c0,0.467,0.035,0.969,0.104,1.505
		c0.07,0.537,0.326,1.19,0.771,1.96c0.441,0.77,1.107,1.622,1.994,2.555c1.82,1.867,4.504,4.212,8.051,7.035
		c3.545,2.824,6.369,4.935,8.469,6.335c1.307-0.653,2.334-1.423,3.08-2.31c0.98-1.213,1.471-2.683,1.471-4.41
		c0-2.753-0.584-4.83-1.75-6.23c-0.934-1.073-2.1-1.61-3.5-1.61c-1.121,0-2.029,0.257-2.73,0.77c-0.699,0.514-0.98,1.12-0.84,1.82
		c0.047,0.234,0.211,0.467,0.49,0.7c0.746,0.467,1.143,0.817,1.189,1.05c0.047,0.234,0.07,0.409,0.07,0.525c0,0.117,0,0.222,0,0.315
		c0,0.56-0.141,1.004-0.42,1.33c-0.094,0.094-0.258,0.21-0.49,0.35h7.35v0.98h-11.41l-1.049-0.98h4.061
		c-0.654-0.373-1.098-0.77-1.33-1.19c-0.234-0.42-0.352-0.933-0.352-1.54c0-1.4,0.537-2.613,1.611-3.64
		c1.072-1.026,2.355-1.54,3.85-1.54c1.959,0,3.594,0.654,4.9,1.96c1.445,1.494,2.17,3.594,2.17,6.3c0,1.82-0.537,3.454-1.611,4.9
		c-1.072,1.447-2.355,2.567-3.85,3.36c1.773,1.26,3.383,2.217,4.83,2.87c1.961,0.84,3.92,1.26,5.881,1.26
		c3.779,0,6.719-1.096,8.82-3.29c1.771-1.82,2.66-3.99,2.66-6.51c0-2.66-0.516-4.76-1.541-6.3c-1.119-1.68-2.777-2.52-4.971-2.52
		s-3.756,0.724-4.689,2.17c-0.607,1.027-0.91,2.264-0.91,3.71c0,1.214,0.314,2.159,0.945,2.835c0.631,0.677,1.342,1.015,2.135,1.015
		c0.652,0,1.248-0.233,1.785-0.7c0.535-0.466,0.805-1.19,0.805-2.17h-4.9v-0.98h10.361l0.279,0.98h-3.85
		c0.186,0.467,0.279,0.934,0.279,1.4c0,1.12-0.443,1.949-1.33,2.485c-0.887,0.537-1.889,0.805-3.01,0.805
		c-1.4,0-2.555-0.466-3.465-1.4c-0.91-0.933-1.365-2.286-1.365-4.06c0-1.773,0.514-3.313,1.541-4.62
		c1.26-1.633,3.08-2.45,5.459-2.45c2.566,0,4.504,1.027,5.811,3.08c1.072,1.727,1.609,3.804,1.609,6.23
		c0,1.167-0.117,2.124-0.35,2.87c0.746-0.886,1.506-1.598,2.275-2.135c0.77-0.536,1.527-0.805,2.275-0.805
		c0.84,0,1.562,0.222,2.17,0.665C234.896,35.584,235.201,36.342,235.201,37.415z M202.509,40.145
		c-1.818-1.306-3.383-2.45-4.689-3.43c-2.428-1.773-4.154-3.103-5.18-3.99c-3.92-3.36-6.627-5.6-8.121-6.72
		c-4.199-3.22-8.049-5.646-11.549-7.28c-4.714-2.193-9.239-3.29-13.58-3.29c-5.04,0-9.147,1.354-12.32,4.06
		c-3.454,2.94-5.18,7-5.18,12.18c0,4.62,1.633,8.26,4.9,10.92c2.753,2.287,5.973,3.43,9.66,3.43c3.126,0,5.786-0.84,7.979-2.52
		c2.894-2.24,4.34-5.623,4.34-10.15c0-2.286-0.759-4.165-2.274-5.635c-1.518-1.47-3.255-2.205-5.215-2.205
		c-2.334,0-3.99,0.724-4.97,2.17c-0.7,1.074-1.05,2.404-1.05,3.99c0,0.794,0.198,1.459,0.595,1.995
		c0.396,0.537,0.945,0.805,1.645,0.805c0.56,0,0.956-0.151,1.19-0.455c0.233-0.303,0.35-0.711,0.35-1.225
		c0-0.326-0.024-0.56-0.07-0.7h8.89v0.98l-7.561-0.07c0.233,0.28,0.351,0.7,0.351,1.26c0,0.794-0.257,1.47-0.771,2.03
		c-0.654,0.794-1.564,1.19-2.73,1.19c-1.354,0-2.427-0.501-3.22-1.505c-0.794-1.003-1.19-2.251-1.19-3.745
		c0-1.866,0.583-3.523,1.75-4.97c1.493-1.96,3.663-2.94,6.51-2.94c1.96,0,3.78,0.63,5.46,1.89c2.24,1.68,3.36,4.037,3.36,7.07
		l-0.07,3.22c0.28-1.12,0.968-1.936,2.065-2.45c1.096-0.513,2.367-0.77,3.814-0.77v-0.28h-4.97v-0.91h13.859l1.262,0.98h-7.84v0.21
		c2.285,0.327,4.76,1.214,7.42,2.66c3.779,2.1,6.625,3.477,8.539,4.13c0.699,0.234,1.471,0.432,2.311,0.595
		c0.84,0.164,1.68,0.245,2.52,0.245C200.222,40.915,201.484,40.659,202.509,40.145z M197.611,38.815l-0.771,0.21
		c-2.334-0.98-5.25-2.753-8.75-5.32c-5.227-3.826-8.307-6.043-9.24-6.65c-3.173-1.96-6.486-3.546-9.939-4.76
		c-3.454-1.213-6.65-1.82-9.59-1.82c-4.294,0-7.56,1.19-9.8,3.57c-2.007,2.1-3.01,4.807-3.01,8.12c0,2.38,0.63,4.41,1.89,6.09
		c0.84,1.167,1.983,2.194,3.43,3.08l-0.21,0.49c-1.587-0.746-3.034-2.006-4.34-3.78c-1.4-2.006-2.1-4.036-2.1-6.09
		c0-4.293,1.225-7.688,3.675-10.185c2.45-2.496,5.961-3.745,10.535-3.745c3.033,0,6.393,0.677,10.08,2.03
		c3.267,1.214,6.3,2.777,9.1,4.69c2.193,1.54,4.736,3.43,7.631,5.67c2.145,1.68,4.293,3.36,6.439,5.04
		C194.599,36.949,196.255,38.069,197.611,38.815z M213.009,33.075h-2.24v-0.98h2.24V33.075z M242.621,32.515
		c0,1.774-0.748,2.66-2.24,2.66c-1.4,0-2.1-0.723-2.1-2.17h-9.73v-0.91h9.66c0-0.653,0.197-1.201,0.594-1.645
		c0.396-0.443,0.922-0.665,1.576-0.665c0.746,0,1.305,0.245,1.68,0.735C242.433,31.01,242.621,31.675,242.621,32.515z
		 M270.269,31.955l-25.898,3.08v-5.25L270.269,31.955z"/>
</g>
<g>
</g>
<g>
</g>
<g>
</g>
<g>
</g>
<g>
</g>
<g>
</g>
<g>
</g>
<g>
</g>
<g>
</g>
<g>
</g>
<g>
</g>
<g>
</g>
<g>
</g>
<g>
</g>
<g>
</g>
</svg>
